<?xml version="1.0" encoding="UTF-8" standalone="no"?>
<!-- Created with Inkscape (http://www.inkscape.org/) -->

<svg
   xmlns:dc="http://purl.org/dc/elements/1.1/"
   xmlns:cc="http://creativecommons.org/ns#"
   xmlns:rdf="http://www.w3.org/1999/02/22-rdf-syntax-ns#"
   xmlns:svg="http://www.w3.org/2000/svg"
   xmlns="http://www.w3.org/2000/svg"
   xmlns:sodipodi="http://sodipodi.sourceforge.net/DTD/sodipodi-0.dtd"
   xmlns:inkscape="http://www.inkscape.org/namespaces/inkscape"
   width="210mm"
   height="297mm"
   viewBox="0 0 744.09448819 1052.3622047"
   id="svg2"
   version="1.1"
   inkscape:version="0.91 r13725"
   sodipodi:docname="drawing.svg">
  <defs
     id="defs4" />
  <sodipodi:namedview
     id="base"
     pagecolor="#ffffff"
     bordercolor="#666666"
     borderopacity="1.0"
     inkscape:pageopacity="0.0"
     inkscape:pageshadow="2"
     inkscape:zoom="0.49497475"
     inkscape:cx="198.07373"
     inkscape:cy="693.07708"
     inkscape:document-units="px"
     inkscape:current-layer="layer1"
     showgrid="false"
     inkscape:window-width="1375"
     inkscape:window-height="876"
     inkscape:window-x="65"
     inkscape:window-y="24"
     inkscape:window-maximized="1" />
  <metadata
     id="metadata7">
    <rdf:RDF>
      <cc:Work
         rdf:about="">
        <dc:format>image/svg+xml</dc:format>
        <dc:type
           rdf:resource="http://purl.org/dc/dcmitype/StillImage" />
        <dc:title></dc:title>
      </cc:Work>
    </rdf:RDF>
  </metadata>
  <g
     inkscape:label="Layer 1"
     inkscape:groupmode="layer"
     id="layer1">
    <path
       style="fill:#00ff00;stroke:#00ff00"
       d="m 215.32548,575.94245 c -0.66,-0.66 -1.2,-1.66624 -1.2,-2.2361 0,-0.56985 5.61451,-6.66735 12.4767,-13.55 l 12.47669,-12.5139 -2.65254,-5.34793 c -3.39701,-6.84889 -4.02019,-14.16582 -1.84403,-21.65152 1.47373,-5.06945 2.8976,-7.02896 11.54754,-15.89151 l 9.86654,-10.10904 3.36216,3.25 c 1.84918,1.7875 3.71837,3.25 4.15374,3.25 0.43538,0 2.70247,-1.96615 5.038,-4.36923 2.33552,-2.40307 5.44538,-5.15483 6.9108,-6.11501 2.4797,-1.62476 2.83771,-1.63223 5.1644,-0.10772 4.2913,2.81177 3.35704,6.30647 -3.49993,13.09189 l -5.99993,5.93732 5.21936,5.28501 5.21936,5.28501 6.05747,-6.00364 c 6.86282,-6.80181 10.31564,-7.74643 13.05169,-3.57069 2.00842,3.06524 1.33554,4.36461 -5.9703,11.52897 l -5.56976,5.46191 3.71194,3.80138 3.71195,3.80138 -8.82075,8.86181 c -11.20306,11.2552 -15.58732,13.58324 -25.6111,13.59947 -6.17036,0.01 -8.47507,-0.47126 -13,-2.71456 l -5.5,-2.72669 -12.5139,12.47669 c -6.88265,6.86219 -12.98015,12.4767 -13.55,12.4767 -0.56986,0 -1.5761,-0.54 -2.2361,-1.2 z m 97.06552,-63.99602 -3.19602,-3.19602 5.46525,-5.72974 c 5.87297,-6.15719 6.62126,-8.72221 3.46525,-11.87822 -3.15566,-3.15566 -5.72105,-2.4077 -11.87511,3.46229 l -5.72664,5.46228 -4.66141,-4.66141 -4.66141,-4.66141 5.46228,-5.72664 c 5.86999,-6.15406 6.61795,-8.71945 3.46229,-11.87511 -3.158,-3.158 -5.72091,-2.40783 -11.89564,3.48187 l -5.74717,5.48187 -3.4286,-3.54642 -3.42859,-3.54642 10.10904,-9.86654 c 8.86255,-8.64994 10.82206,-10.07381 15.89151,-11.54754 7.4857,-2.17616 14.80263,-1.55298 21.65152,1.84403 l 5.34793,2.65254 12.65693,-12.6194 c 12.68477,-12.64716 14.89933,-13.95692 16.50846,-9.7636 0.44211,1.15215 -3.00089,5.24743 -11.99938,14.27268 l -12.6194,12.65693 2.72669,5.5 c 3.70108,7.46541 3.87384,18.28202 0.3993,25 -1.99871,3.86451 -18.62648,22 -20.17098,22 -0.29705,0 -1.97829,-1.43821 -3.7361,-3.19602 z"
       id="path3347"
       inkscape:connector-curvature="0"
       inkscape:export-xdpi="90"
       inkscape:export-ydpi="90" />
    <path
       style="fill:#000000"
       d="m 391.99846,596.65974 c -0.66,-0.66 -1.2,-1.66624 -1.2,-2.2361 0,-0.56985 5.61451,-6.66735 12.4767,-13.55 l 12.47669,-12.5139 -2.65254,-5.34793 c -3.39701,-6.84889 -4.02019,-14.16582 -1.84403,-21.65152 1.47373,-5.06945 2.8976,-7.02896 11.54754,-15.89151 l 9.86654,-10.10904 3.36216,3.25 c 1.84918,1.7875 3.71837,3.25 4.15374,3.25 0.43538,0 2.70247,-1.96615 5.038,-4.36923 2.33552,-2.40307 5.44538,-5.15483 6.9108,-6.11501 2.4797,-1.62476 2.83771,-1.63223 5.1644,-0.10772 4.2913,2.81177 3.35704,6.30647 -3.49993,13.09189 l -5.99993,5.93732 5.21936,5.28501 5.21936,5.28501 6.05747,-6.00364 c 6.86282,-6.80181 10.31564,-7.74643 13.05169,-3.57069 2.00842,3.06524 1.33554,4.36461 -5.9703,11.52897 l -5.56976,5.46191 3.71194,3.80138 3.71195,3.80138 -8.82075,8.86181 c -11.20306,11.2552 -15.58732,13.58324 -25.6111,13.59947 -6.17036,0.01 -8.47507,-0.47126 -13,-2.71456 l -5.5,-2.72669 -12.5139,12.47669 c -6.88265,6.86219 -12.98015,12.4767 -13.55,12.4767 -0.56986,0 -1.5761,-0.54 -2.2361,-1.2 z m 97.06552,-63.99602 -3.19602,-3.19602 5.46525,-5.72974 c 5.87297,-6.15719 6.62126,-8.72221 3.46525,-11.87822 -3.15566,-3.15566 -5.72105,-2.4077 -11.87511,3.46229 l -5.72664,5.46228 -4.66141,-4.66141 -4.66141,-4.66141 5.46228,-5.72664 c 5.86999,-6.15406 6.61795,-8.71945 3.46229,-11.87511 -3.158,-3.158 -5.72091,-2.40783 -11.89564,3.48187 l -5.74717,5.48187 -3.4286,-3.54642 -3.42859,-3.54642 10.10904,-9.86654 c 8.86255,-8.64994 10.82206,-10.07381 15.89151,-11.54754 7.4857,-2.17616 14.80263,-1.55298 21.65152,1.84403 l 5.34793,2.65254 12.65693,-12.6194 c 12.68477,-12.64716 14.89933,-13.95692 16.50846,-9.7636 0.44211,1.15215 -3.00089,5.24743 -11.99938,14.27268 l -12.6194,12.65693 2.72669,5.5 c 3.70108,7.46541 3.87384,18.28202 0.3993,25 -1.99871,3.86451 -18.62648,22 -20.17098,22 -0.29705,0 -1.97829,-1.43821 -3.7361,-3.19602 z"
       id="path3347-3"
       inkscape:connector-curvature="0"
       inkscape:export-xdpi="90"
       inkscape:export-ydpi="90" />
    <path
       style="fill:#ff0000;fill-rule:evenodd;stroke:#ff0000;stroke-width:5;stroke-linecap:butt;stroke-linejoin:miter;stroke-miterlimit:4;stroke-dasharray:none;stroke-opacity:1"
       d="m 423.25392,473.5448 86.87312,88.89342"
       id="path3368"
       inkscape:connector-curvature="0"
       inkscape:export-xdpi="90"
       inkscape:export-ydpi="90" />
    <path
       style="fill:#808080;stroke:#000000"
       d="m 388.65804,291.06506 c -0.5464,-0.53636 -0.76715,-1.68708 -0.76715,-3.99902 0,-2.48534 -0.20061,-3.42417 -0.85609,-4.00647 -1.41403,-1.25614 -14.56725,-6.13933 -15.57505,-5.7823 -0.49477,0.17528 -2.02559,1.34906 -3.40183,2.60839 -1.81079,1.65698 -2.77732,2.21909 -3.49772,2.03416 -1.34226,-0.34455 -8.88981,-7.98621 -8.88981,-9.00066 0,-0.44332 1.09843,-1.94611 2.44095,-3.33952 1.34252,-1.39341 2.44094,-2.84778 2.44094,-3.23195 0,-1.38432 -6.39135,-15.52156 -7.38751,-16.34068 -0.75369,-0.61974 -1.89319,-0.83862 -4.36594,-0.83862 -2.80852,0 -3.42725,-0.14891 -3.85143,-0.92691 -0.72464,-1.32911 -0.65751,-11.67073 0.0805,-12.39513 0.32463,-0.31866 1.9027,-0.5782 3.53937,-0.58212 4.59013,-0.011 4.90505,-0.31599 7.89106,-7.643 1.44618,-3.54863 2.62943,-7.08593 2.62943,-7.86067 0,-1.03308 -0.65077,-2.08406 -2.44095,-3.94209 -1.34252,-1.39341 -2.44095,-2.80283 -2.44095,-3.13203 0,-0.9035 8.48079,-9.04302 9.42217,-9.04302 0.45071,0 2.03239,1.07822 3.51485,2.39605 1.48246,1.31783 2.89853,2.39605 3.14683,2.39605 1.09061,0 16.44159,-6.79702 16.99098,-7.52318 0.33563,-0.44362 0.61024,-2.15165 0.61024,-3.79562 0,-4.32753 0.27331,-4.49514 7.33003,-4.49514 6.95471,0 7.31565,0.25297 7.31565,5.12729 0,2.58288 0.15184,3.09323 1.09843,3.69192 1.67457,1.05913 13.43243,5.5571 14.52646,5.5571 0.52977,0 2.15799,-1.06209 3.61827,-2.36021 1.87944,-1.67072 2.93839,-2.28748 3.62494,-2.11125 1.31756,0.33822 8.86421,7.9885 8.86421,8.98594 0,0.43884 -0.98858,1.83533 -2.19685,3.10331 -1.35939,1.42657 -2.19234,2.74317 -2.18501,3.45374 0.007,0.63158 1.4894,4.48502 3.29528,8.56319 3.68052,8.31156 3.98189,8.62001 8.43383,8.63162 1.4902,0.004 2.97307,0.26584 3.29528,0.58212 0.73797,0.7244 0.80511,11.06602 0.0805,12.39513 -0.42347,0.77671 -1.04257,0.92691 -3.82042,0.92691 -2.81987,0 -3.46251,0.16106 -4.30223,1.07823 -1.16701,1.27462 -6.02211,13.0592 -6.01948,14.61083 9.7e-4,0.61162 1.0359,2.19403 2.40625,3.67938 1.70203,1.84487 2.33034,2.88435 2.15081,3.55826 -0.34455,1.29333 -8.13818,8.70118 -9.15431,8.70118 -0.44707,0 -1.89908,-0.99736 -3.2267,-2.21635 -1.41969,-1.30353 -2.86879,-2.21227 -3.51846,-2.20645 -1.38934,0.0125 -14.90281,5.60956 -16.09019,6.66436 -0.66598,0.59161 -0.88057,1.49725 -0.88057,3.71621 0,4.80259 -0.37773,5.06406 -7.31565,5.06406 -4.61792,0 -5.95162,-0.15303 -6.56288,-0.75304 z m 13.14625,-34.21309 c 3.73687,-1.68738 6.34253,-4.25609 8.17619,-8.06025 3.84952,-7.98631 0.19311,-17.35469 -8.31583,-21.30663 -8.13595,-3.77872 -17.67987,-0.18956 -21.70586,8.16287 -2.06309,4.28013 -2.06309,8.86364 0,13.14376 4.09348,8.49245 13.33609,11.90266 21.8455,8.06025 z"
       id="path4200"
       inkscape:connector-curvature="0"
       inkscape:export-xdpi="90"
       inkscape:export-ydpi="90" />
    <path
       style="fill:#808080;stroke:#000000;stroke-width:1.09707725"
       d="m 560.37269,377.77118 c -2.4716,-0.84086 -4.37929,-2.21271 -5.61647,-4.03893 -2.12109,-3.13098 -2.07889,-2.48293 -1.97515,-30.34002 l 0.0944,-25.35674 0.90099,-1.87848 c 1.65292,-3.44623 4.99755,-5.80235 8.87391,-6.25123 l 1.74609,-0.2022 0,6.11022 c 0,6.57502 0.25665,7.87345 1.75974,8.90282 0.70507,0.48285 2.3141,0.54833 13.47528,0.54833 l 12.67461,0 1.00528,-0.9829 1.00527,-0.9829 0,-6.79415 0,-6.79415 2.66531,0.15562 c 1.85393,0.10827 3.13641,0.39031 4.21289,0.92657 2.07137,1.03185 19.5443,18.09184 20.67689,20.18823 l 0.8175,1.51313 0,18.83023 0,18.83024 -0.90098,1.87847 c -1.14524,2.38773 -2.98951,4.19095 -5.43161,5.31069 l -1.92126,0.88093 -26.13717,0.0774 c -24.45086,0.0723 -26.25255,0.038 -27.92555,-0.53111 z m 49.50049,-12.12773 1.12313,-0.98074 0.10756,-10.03158 c 0.1202,-11.21101 -0.011,-12.19822 -1.75987,-13.24081 -1.05676,-0.63002 -1.88476,-0.65517 -21.56162,-0.65517 -19.67686,0 -20.50485,0.0252 -21.56162,0.65517 -1.74885,1.04259 -1.88007,2.0298 -1.75987,13.24081 l 0.10756,10.03158 1.12313,0.98074 1.12313,0.98074 20.96767,0 20.96767,0 1.12313,-0.98074 z m -36.11459,-4.92277 c -0.94371,-0.64628 -1.01388,-2.1778 -0.13542,-2.9551 0.56288,-0.49807 2.0559,-0.5565 14.21896,-0.5565 12.72906,0 13.62611,0.039 14.15922,0.61492 0.81236,0.87766 0.71848,2.27098 -0.19517,2.89668 -0.65971,0.45179 -2.57956,0.52345 -14.0238,0.52345 -11.44423,0 -13.36409,-0.0716 -14.02379,-0.52345 z m 0.26739,-10.33338 c -1.05924,-0.52116 -1.34577,-2.23826 -0.50987,-3.05554 0.49736,-0.48629 2.07046,-0.54656 14.26627,-0.54656 15.19494,0 14.93858,-0.0372 14.72073,2.1361 -0.18511,1.84657 -0.51602,1.88904 -14.72073,1.88904 -9.6765,0 -13.11131,-0.10558 -13.7564,-0.42304 z m 11.57429,-29.09981 c -0.45081,-0.48707 -0.56918,-1.32365 -0.56918,-4.02322 0,-3.92468 0.13172,-4.10447 3.00686,-4.10447 2.54971,0 2.97041,0.47047 3.1267,3.49657 0.22446,4.34583 -0.3215,5.24604 -3.18158,5.24604 -1.32025,0 -1.96847,-0.16728 -2.3828,-0.61492 z"
       id="path4213"
       inkscape:connector-curvature="0"
       inkscape:export-xdpi="90"
       inkscape:export-ydpi="90" />
  </g>
</svg>
